<?xml version="1.0" standalone="no"?><!DOCTYPE svg PUBLIC "-//W3C//DTD SVG 1.1//EN" "http://www.w3.org/Graphics/SVG/1.1/DTD/svg11.dtd"><svg t="1745375022330" class="icon" viewBox="0 0 1050 1050" version="1.1" xmlns="http://www.w3.org/2000/svg" p-id="1706" width="200" height="200" xmlns:xlink="http://www.w3.org/1999/xlink"><path d="M509.724444 651.093333H156.728889c-48.924444 0-88.462222-39.822222-88.462222-88.462222v-254.293333c0-48.924444 39.822222-88.462222 88.462222-88.462222H713.955556c48.924444 0 88.462222 39.822222 88.462222 88.462222v54.044444c0 18.773333 15.36 34.133333 34.133333 34.133334s34.133333-15.36 34.133333-34.133334v-54.044444c0-86.471111-70.257778-156.728889-156.728888-156.728889H156.728889C70.257778 151.608889 0 221.866667 0 308.337778v254.293333c0 86.471111 70.257778 156.728889 156.728889 156.728889h352.995555c18.773333 0 34.133333-15.36 34.133334-34.133333-0.284444-19.057778-15.36-34.133333-34.133334-34.133334zM989.866667 651.093333h-119.182223V531.911111c0-18.773333-15.36-34.133333-34.133333-34.133333s-34.133333 15.36-34.133333 34.133333v119.182222h-119.182222c-18.773333 0-34.133333 15.36-34.133334 34.133334 0 18.773333 15.36 34.133333 34.133334 34.133333h119.182222v119.182222c0 18.773333 15.36 34.133333 34.133333 34.133334s34.133333-15.36 34.133333-34.133334v-119.182222h119.182223c18.773333 0 34.133333-15.36 34.133333-34.133333 0-19.057778-15.36-34.133333-34.133333-34.133334z" p-id="1707" fill="#000000"></path></svg>